<svg viewBox="0 0 72 72" xmlns="http://www.w3.org/2000/svg"><g style="fill:none;stroke:#000;stroke-linecap:round;stroke-linejoin:round;stroke-miterlimit:10;stroke-width:2"><path d="m27.1667 68h-23.1667v-11.6667l15-7.5c-2.6034 8.5367 7.4551 14.557 12.5 11.6667z"/><path d="m29.8302 61.109c0-.6628 2.1906-3.6923 3.0031-3.6923 1 0 3.8958-1.5654 3.8958-3.5v-46.9167c-.6501-2.6582-4.6041-3-5.2291.3474l-2.625 17.8088c-.4583 2.8906-1.75 2.8906-2.25 5.7812-.6875 5.625-1.3431 15.4439-7.9681 19.4647"/><path d="m46.2917 68h23.1667v-11.6667l-15-7.5c2.6034 8.5367-7.4551 14.557-12.5 11.6667z"/><path d="m43.6281 61.109c0-.6628-2.1906-3.6923-3.0031-3.6923-1 0-3.8958-1.5654-3.8958-3.5v-46.9167c.6502-2.6582 4.6042-3 5.2292.3474l2.625 17.8088c.4583 2.8906 1.75 2.8906 2.25 5.7812.6875 5.625 1.3431 15.4439 7.9681 19.4647"/></g></svg>